<?xml version="1.0" encoding="UTF-8" standalone="no"?>

<svg
  width="399"
  height="45.00178622560798"
  viewBox="0 0 399 45.00178622560798"
  class="css-1j8o68f"
  xmlns="http://www.w3.org/2000/svg"
  xmlns:svg="http://www.w3.org/2000/svg"
>
  <defs id="SvgjsDefs4386"></defs>
  <g
    id="SvgjsG4387"
    featurekey="symbolFeature-0"
    transform="matrix(1,0,0,1,-12.54248046875,-9.08502197265625)"
    fill="#d72323"
  >
    <g xmlns="http://www.w3.org/2000/svg">
      <g>
        <g>
          <path
            d="M12.5599976,23.0449829c-0.0100098-0.039978-0.0100098-0.0699463-0.0100098-0.1099854     c-0.0100098-0.0599976-0.0100098-0.1300049,0-0.1799927v-0.1500244c0-0.0299683,0-0.0499878,0.0100098-0.0799561V23.0449829z"
          ></path>
        </g>
      </g>
      <g>
        <g>
          <path
            d="M36.25,33.1149902c-0.3589897,1.320137-0.1971474,4.5884895-1.2597694,5.6000786     c-0.6738205,0.8083076-3.8750534,0.327137-4.780262,0.4500427c-0.9073582-0.0007057-1.6818981-0.6759224-1.8199558-1.5700798     c0.0191879-1.4305916-1.2228909-4.5474777-0.2502537-5.7799911c0.6068974-1.0686569,5.5227814-0.3716259,6.4902725-0.5602703     C35.5934677,31.2292938,36.3964882,32.1660423,36.25,33.1149902z"
          ></path>
        </g>
      </g>
      <g>
        <g>
          <path
            d="M26.6500244,38.7550049c-3.9200439,1.6599731-6.0200195,7.789978-6.710022,10.1599731l-5.2600098-1.0499878     c0.6400146-2.7199707,4.2800293-6.3499756,7.710022-9.2199707l0.0100098-0.0100098     c0.0599976-0.0499878,0.1300049-0.0999756,0.1900024-0.1500244c0.0099487-0.0099487,0.0099487-0.0099487,0.0199585-0.0299683     c0.0100098-0.0100098,0.0200195-0.0200195,0.0300293-0.0200195c1.25-1.0299683,2.4599609-1.9599609,3.4699707-2.6900024     L26.4099731,37.875C26.4500122,38.1849976,26.5300293,38.4750366,26.6500244,38.7550049z"
          ></path>
          <path
            d="M25.789978,33.5250244c-0.8399658,0.5799561-2.3899536,1.7000122-4.1499634,3.1399536     c-2.3099976-0.75-4.1900024-1.6999512-5.8599854-2.5499878l-0.6600342-0.3399658     c-1.5800171-0.7999878-2.5599976-2.3900146-2.5599976-4.1600342v-2.0599976     c0.1699829,0.1799927,0.3400269,0.3300171,0.5300293,0.4500122c0.0299683,0.039978,0.0599976,0.0599976,0.0899658,0.0700073     c0.0900269,0.0899658,0.1900024,0.1500244,0.289978,0.2199707c2.8800049,1.9200439,5.8100586,3.5599976,12.3000488,4.0800171     c-0.0500488,0.3400269-0.0500488,0.6799927,0,1.0200195L25.789978,33.5250244z"
          ></path>
        </g>
      </g>
      <path
        d="M51.4500122,23.0050049c0,0.039978,0,0.0700073-0.0100098,0.1099854v-0.4699707   c0,0.0299683,0.0100098,0.0700073,0.0100098,0.1099854C51.460022,22.8049927,51.460022,22.875,51.4500122,23.0050049z"
      ></path>
      <g>
        <g>
          <path
            d="M48.9000244,18.625C45.8099976,17.0150146,40.3699951,15.085022,32,15.085022S18.1900024,17.0150146,15.0900269,18.625     c-1.4800415,0.789978-2.4300537,2.2299805-2.5300293,3.8900146v0.5299683     c0.0499878,1.0400391,0.4199829,1.9700317,1.039978,2.710022c2.2000122-2.3300171,8.1600342-6.3300171,18.3699951-6.0100098     h0.0600586c10.1999512-0.3300171,16.1599731,3.6699829,18.3599854,6     c0.3399658,0.3599854,0.5999756,0.6799927,0.7600098,0.9400024c0.2799683,0.4400024,0.1699829,1.0200195-0.2400513,1.3200073     c-0.0299683,0.039978-0.0599976,0.0599976-0.0899658,0.0700073c-0.0900269,0.0899658-0.1900024,0.1500244-0.289978,0.2199707     c-2.8800049,1.9200439-5.8100586,3.5599976-12.3000488,4.0800171c0.0500488,0.3400269,0.0500488,0.6799927,0,1.0200195     l-0.0100098,0.0899658c0.8500366,0.5400391,2.5300293,1.6500244,4.2900391,3.1199951     c2.2799683-0.7399902,4.1400146-1.6900024,5.789978-2.5299683l0.5800171-0.2999878     c1.5800171-0.7999878,2.5599976-2.3900146,2.5599976-4.1600342v-2.0599976v-4.4400024v-0.4699707     C51.3699951,20.9050293,50.4199829,19.4249878,48.9000244,18.625z"
          ></path>
          <path
            d="M46.5,45.0350342l-5,1c-0.1300049-2.6000366-1.1099854-6.1300049-4.1400146-7.3200073     c0.1099854-0.2600098,0.1900024-0.5500488,0.2300415-0.8400269l0.3199463-2.210022     c1.0700073,0.7200317,2.3900146,1.6800537,3.6700439,2.7700195c0.039978,0.0400391,0.0799561,0.0700073,0.1199951,0.1099854     C43.9500122,40.4949951,46.0599976,42.8549805,46.5,45.0350342z"
          ></path>
        </g>
      </g>
    </g>
  </g>
  <g
    id="SvgjsG4388"
    featurekey="K5GtsI-0"
    transform="matrix(3.032465347903672,0,0,3.032465347903672,58.514806007052904,-16.739210108580743)"
    fill="#d72323"
  >
    <path
      d="M4.6 20 l0 -11.6 l-4.44 0 l0 -2.4 l11.52 0 l0 2.4 l-4.44 0 l0 11.6 l-2.64 0 z M24.4 20 l-1.18 -2.64 l-7.32 0 l-1.2 2.64 l-2.86 0 l6.28 -14 l2.88 0 l6.28 14 l-2.88 0 z M22.16 14.9 l-2.6 -5.96 l-2.6 5.96 l5.2 0 z M38.7 17.4 l0 2.6 l-10.48 0 l0 -14 l10.48 0 l0 2.56 l-7.86 0 l0 3.22 l7.58 0 l0 2.46 l-7.58 0 l0 3.16 l7.86 0 z M51.28 16.42 l1.8 1.82 c-1.44 1.42 -3.3 2.08 -5.32 2.08 c-5.2 0 -7.4 -3.58 -7.42 -7.22 c-0.02 -3.66 2.36 -7.38 7.42 -7.38 c1.9 0 3.7 0.72 5.14 2.14 l-1.76 1.7 c-0.92 -0.9 -2.16 -1.32 -3.38 -1.32 c-3.38 0 -4.84 2.52 -4.82 4.86 c0.02 2.32 1.36 4.74 4.82 4.74 c1.22 0 2.6 -0.5 3.52 -1.42 z M61.14000000000001 5.720000000000001 c4.82 0 7.22 3.7 7.18 7.36 c-0.04 3.62 -2.26 7.24 -7.18 7.24 s-7.2 -3.54 -7.2 -7.22 s2.36 -7.38 7.2 -7.38 z M61.14000000000001 8.12 c-3.3 0 -4.66 2.66 -4.6 5.02 c0.06 2.3 1.3 4.76 4.6 4.76 s4.54 -2.48 4.58 -4.78 c0.04 -2.36 -1.28 -5 -4.58 -5 z M82.46000000000001 20.02 l0 -10.16 l-4.56 6.08 l-0.52 0 l-4.46 -6.1 l0 10.18 l-2.64 0 l0 -14 l3.04 0 l4.38 6.02 l4.38 -6.02 l3.02 0 l0 14 l-2.64 0 z M90.22 8.5 l0 4.96 l3.96 0 c3.38 0 3.36 -4.96 0 -4.96 l-3.96 0 z M94.17999999999999 5.98 c6.84 0 6.86 9.9 0 9.9 l-3.96 0 l0 4.12 l-2.64 0 l0 -14 c2.2 0 4.4 -0.02 6.6 -0.02 z M111.83999999999999 8.3 l-2.1 1.08 c-0.48 -0.8 -1.8 -1.56 -3.32 -1.56 c-1.96 0 -2.9 0.82 -2.9 1.86 c0 1.22 1.44 1.56 3.12 1.76 c2.92 0.36 5.64 1.12 5.64 4.46 c0 3.12 -2.76 4.46 -5.88 4.46 c-2.86 0 -5.06 -0.88 -6.1 -3.44 l2.2 -1.14 c0.62 1.54 2.24 2.22 3.94 2.22 c1.66 0 3.22 -0.58 3.22 -2.1 c0 -1.32 -1.38 -1.86 -3.24 -2.06 c-2.86 -0.34 -5.5 -1.1 -5.5 -4.24 c0 -2.88 2.84 -4.06 5.42 -4.08 c2.18 0 4.44 0.62 5.5 2.78 z"
    ></path>
  </g>
</svg>
